<svg width="11" height="20" viewBox="0 0 11 20" fill="none" xmlns="http://www.w3.org/2000/svg">
<path d="M9.09151 5.23772V15.1013C9.09151 16.9968 7.55623 18.5321 5.66071 18.5321C3.76519 18.5321 2.22991 16.9968 2.22991 15.1013V4.38002C2.22991 3.19639 3.19053 2.23577 4.37416 2.23577C5.55779 2.23577 6.51841 3.19639 6.51841 4.38002V13.3859C6.51841 13.8576 6.13245 14.2436 5.66071 14.2436C5.18898 14.2436 4.80301 13.8576 4.80301 13.3859V5.23772H3.51646V13.3859C3.51646 14.5695 4.47708 15.5301 5.66071 15.5301C6.84434 15.5301 7.80496 14.5695 7.80496 13.3859V4.38002C7.80496 2.4845 6.26968 0.949219 4.37416 0.949219C2.47864 0.949219 0.943359 2.4845 0.943359 4.38002V15.1013C0.943359 17.7087 3.0533 19.8186 5.66071 19.8186C8.26812 19.8186 10.3781 17.7087 10.3781 15.1013V5.23772H9.09151Z" fill="#0061AE"/>
</svg>
