<svg width="13" height="16" viewBox="0 0 13 16" fill="none" xmlns="http://www.w3.org/2000/svg">
<path fill-rule="evenodd" clip-rule="evenodd" d="M0.470703 6.05625C0.470703 2.93187 3.1627 0.390625 6.4707 0.390625C9.7787 0.390625 12.4707 2.93187 12.4707 6.05625C12.4707 10.4956 7.0347 15.0794 6.80337 15.2725C6.70804 15.3512 6.58937 15.3906 6.4707 15.3906C6.35204 15.3906 6.23337 15.3513 6.13804 15.2719C5.9067 15.0794 0.470703 10.4956 0.470703 6.05625ZM3.13737 6.01562C3.13737 7.73875 4.6327 9.14062 6.4707 9.14062C8.3087 9.14062 9.80404 7.73875 9.80404 6.01562C9.80404 4.2925 8.3087 2.89062 6.4707 2.89062C4.6327 2.89062 3.13737 4.2925 3.13737 6.01562Z" fill="white"/>
</svg>
