<svg width="18" height="21" viewBox="0 0 18 21" fill="none" xmlns="http://www.w3.org/2000/svg">
<path fill-rule="evenodd" clip-rule="evenodd" d="M8.99939 0.0078125C6.02599 0.0078125 3.61557 2.41823 3.61557 5.39163V8.4561H3.19983C1.66021 8.4561 0.412109 9.70421 0.412109 11.2438V17.5487C0.412109 19.0884 1.66022 20.3365 3.19983 20.3365H14.7995C16.3391 20.3365 17.5872 19.0884 17.5872 17.5487V11.2438C17.5872 9.7042 16.3391 8.4561 14.7995 8.4561H14.3832V5.39163C14.3832 2.41823 11.9728 0.0078125 8.99939 0.0078125ZM8.99939 1.79539C7.01324 1.79539 5.40315 3.40548 5.40315 5.39163V8.4561H12.5956V5.39163C12.5956 3.40548 10.9855 1.79539 8.99939 1.79539ZM10.7045 14.0536C10.7045 14.7285 10.3124 15.3117 9.74363 15.588V17.3097C9.74363 17.7204 9.41072 18.0533 9.00005 18.0533C8.58938 18.0533 8.25647 17.7204 8.25647 17.3097V15.5884C7.68728 15.3122 7.29485 14.7288 7.29485 14.0536C7.29485 13.1121 8.05814 12.3488 8.9997 12.3488C9.94126 12.3488 10.7045 13.1121 10.7045 14.0536Z" fill="#0061AE"/>
</svg>
