<svg width="24" height="25" viewBox="0 0 24 25" fill="none" xmlns="http://www.w3.org/2000/svg">
<path d="M16.6027 1.07031H7.39693C6.51589 1.07031 5.80469 1.78471 5.80469 2.66415V21.358C5.80469 22.2367 6.51589 22.9503 7.39693 22.9503H16.6027C17.4822 22.9503 18.195 22.2367 18.195 21.358V2.66415C18.195 1.78471 17.4822 1.07031 16.6027 1.07031ZM9.72828 2.03825H14.273C14.3878 2.03825 14.4811 2.20968 14.4811 2.42176C14.4811 2.63385 14.3878 2.80607 14.273 2.80607H9.72828C9.61267 2.80607 9.52098 2.63385 9.52098 2.42176C9.52098 2.20968 9.61267 2.03825 9.72828 2.03825ZM12.0006 21.9376C11.4401 21.9376 10.9841 21.4815 10.9841 20.9202C10.9841 20.3589 11.4401 19.9044 12.0006 19.9044C12.5595 19.9044 13.0156 20.3589 13.0156 20.9202C13.0156 21.4815 12.5595 21.9376 12.0006 21.9376ZM17.0022 18.2908C17.0022 18.843 16.5545 19.2908 16.0022 19.2908H7.99827C7.44598 19.2908 6.99827 18.843 6.99827 18.2908V4.75966C6.99827 4.20737 7.44598 3.75966 7.99827 3.75966H16.0022C16.5545 3.75966 17.0022 4.20737 17.0022 4.75966V18.2908Z" fill="#AAC8E6"/>
</svg>
